# xmcd
#
# Track frame offsets:
#	150
#	16414
#	30517
#	47340
#	63280
#	74682
#	98267
#	121195
#	142457
#	160261
#	180097
#	192560
#	214042
#	233088
#	248621
#	278999
#	298112
#	318896
#
# Disc length: 4521 seconds
#
# Revision: 0
# Processed by: cddbd v1.5.2PL0 Copyright (c) Steve Scherf et al.
# Submitted via: EasyCDDAExtractor 16.0.6.1
#
DISCID=fa11a712
DTITLE=Συλλογικός δίσκος - Εντέχνως Ελληνικά 2
DYEAR=2011
DGENRE=Έντεχνη
TTITLE0=Περίδης Ορφέας - Ζηλεύει η νύχτα Ορφέας Περίδης]
TTITLE1=Παπάζογλου Νίκος - Κανείς εδώ δεν τραγουδά [Ν. Παπάζογλου-Τ. Σιμώτας]
TTITLE2=Θηβαίος Χρήστος - Σεβάχ ο θαλασσινός [Μ. Λοΐζος-Λ. Παπαδόπουλος]
TTITLE3=Τσανακλίδου Τάνια - Ίσως φταίνε τα φεγγάρια [Ν. Μαυρουδής-Τ. Σαμαρτζής
TTITLE3=]
TTITLE4=Μακεδόνας Κώστας - Μόνο μιά φορά [Σταμάτης Κραουνάκης]
TTITLE5=Κανά Μελίνα-Ξυδάκης Ν.-Μασκλαβάνου Δ. - Το λευκό το κυπαρίσσι [Ν. Ξυδά
TTITLE5=κης-Θ. Γκόνης]
TTITLE6=Ιωαννίδης Αλκίνοος - Η επιστροφή του ασώτου [Δημήτρης Αποστολάκης]
TTITLE7=Μπάσης Δημήτρης - Σπασμένο καράβι [Γ. Σπανός-Γ. Σκαρίμπας]
TTITLE8=Περίδης Ορφέας-Κανά Μ.-Καλημέρη Λ.-Πάντος Δ. - Φωτοβολίδα [Ορφέας Περί
TTITLE8=δης]
TTITLE9=Στόκας Μπάμπης - Ανόητες αγάπες [Χ. Κατσιμίχας-Π. Κατσιμίχας]
TTITLE10=Χειμερινοί Κολυμβητές - Δεν είναι ίδιες όλες οι γυναίκες [Σταύρος Καρ
TTITLE10=αμανιώλας]
TTITLE11=Λουδοβίκος των Ανωγείων - Πού η αγάπη κατοικεί [Λουδοβίκος Ανωγείων]
TTITLE12=Λιδάκης Μανώλης - Η μπαλάντα του κυρ Μέντιου [Λ. Θάνος-Κ. Βάρναλης]
TTITLE13=Ψαραντώνης - Ο επαναστάτης (Πότε θα κάμει ξαστεριά)[ριζίτικο, διασκ. 
TTITLE13=ιδίου]
TTITLE14=Βέη Γιώτα-Mode Plagal - Ντελή Παπάς (Παπα Γιώργης)[παραδ., διασκ. Mod
TTITLE14=e Plagal]
TTITLE15=Armando Daniel-Παπαγαβριήλ Μάκης - Νύχτωσε, νύχτα [Χ. Κατσιμίχας-Π. Κ
TTITLE15=ατσιμίχας]
TTITLE16=Αρλέτα - Μιά βραδιά θυμάμαι [Γ. Σπανός-Γ. Παπαστεφάνου]
TTITLE17=ΒΗΤΑ Κ. - Όλο αυτό που ποτέ [Κ. ΒΗΤΑ]
EXTD=
EXTT0=
EXTT1=
EXTT2=
EXTT3=
EXTT4=
EXTT5=
EXTT6=
EXTT7=
EXTT8=
EXTT9=
EXTT10=
EXTT11=
EXTT12=
EXTT13=
EXTT14=
EXTT15=
EXTT16=
EXTT17=
PLAYORDER=
